<?xml version="1.0" encoding="utf-8"?>
<svg version="1.1" baseProfile="tiny" id="Calque_1"
	 xmlns="http://www.w3.org/2000/svg" xmlns:xlink="http://www.w3.org/1999/xlink" x="0px" y="0px" viewBox="0 0 127.6 153.1"
	 xml:space="preserve">
<defs>
	<filter x="-50%" y="-50%" width="300%" height="300%" id="glow">
		<feGaussianBlur class="blur" stdDeviation="5" result="coloredBlur"></feGaussianBlur>
		<feMerge>
			<feMergeNode in="coloredBlur"></feMergeNode>
			<feMergeNode in="SourceGraphic"></feMergeNode>
		</feMerge>
	</filter>
</defs>
<g filter="url(#glow)">
	<path fill="#00FF00" d="M46.5,95l-6.7-6.7v-0.6c0-1.1,0.9-2,2-2h0.6l9.7,9.7c0.8,0.8,1.3,1.9,1.5,2.8c0.1,0.4,0.2,0.8,0.2,1.1
		c0,0.1,0,0.2,0,0.3l0,0.1l0,0l0.2,0l-0.2,0l0,0l0.2,0l-0.2,0v7h-9v-1c0-0.1,0-0.7-0.3-1.6c-0.3-0.9-0.9-2-2-3.1l-7-7
		c-0.9-0.9-1.3-1.7-1.5-2.4c-0.1-0.3-0.2-0.6-0.2-0.7l0-0.2l0,0l-0.3,0h0.3l0,0l-0.3,0h0.3l0-16c0-1.1,0.9-2,2-2c1.1,0,2,0.9,2,2v8
		h2v-8c0-2.2-1.8-4-4-4c-2.2,0-4,1.8-4,4v16c0,0.1,0,0.7,0.3,1.6c0.3,0.9,0.9,2,2,3.1l7,7c0.9,0.9,1.3,1.7,1.5,2.4
		c0.1,0.3,0.2,0.6,0.2,0.7l0,0.2l0,0l0.3,0l-0.3,0l0,0l0.3,0l-0.3,0v3h13v-9c0-0.1,0-0.9-0.3-2c-0.3-1.1-0.8-2.5-2-3.7L43.2,83.7
		h-1.4c-2.2,0-4,1.8-4,4v1v0.4l7.3,7.3L46.5,95L46.5,95z"/>
	<path fill="#00FF00" d="M82.5,96.4l7.3-7.3v-1.4c0-2.2-1.8-4-4-4h-1h-0.4L74.1,94c-1.2,1.2-1.7,2.6-2,3.7c-0.3,1.1-0.3,1.9-0.3,2v9
		h13v-3h-0.3l0.3,0l0,0h-0.3l0.3,0c0,0,0-0.5,0.2-1.1c0.2-0.6,0.6-1.4,1.5-2.2l7-7c1.1-1.1,1.7-2.3,2-3.1c0.3-0.9,0.3-1.5,0.3-1.6
		l0-16c0-2.2-1.8-4-4-4c-2.2,0-4,1.8-4,4v8h2v-8c0-1.1,0.9-2,2-2c1.1,0,2,0.9,2,2v16h0.3l-0.3,0l0,0h0.3l-0.3,0c0,0,0,0.5-0.2,1.1
		c-0.2,0.6-0.6,1.4-1.5,2.2l-7,7c-1.1,1.1-1.7,2.3-2,3.1c-0.3,0.9-0.3,1.5-0.3,1.6v1h-9v-7h-0.2l0.2,0l0,0h-0.2l0.2,0
		c0,0,0-0.7,0.2-1.6c0.2-0.9,0.7-1.9,1.5-2.7l9.7-9.7h0.6c1.1,0,2,0.9,2,2v0.6L81.1,95L82.5,96.4L82.5,96.4z"/>
	<path fill="#00FF00" d="M71.8,114.7v-6l0,0h13v0v6h2l0-6c0-1.1-0.9-2-2-2h-13c-1.1,0-2,0.9-2,2v6H71.8L71.8,114.7z"/>
	<path fill="#00FF00" d="M42.8,114.7v-6l0,0h13v0v6h2l0-6c0-1.1-0.9-2-2-2h-13c-1.1,0-2,0.9-2,2v6H42.8L42.8,114.7z"/>
	<polygon fill="#00FF00" points="43.7,61.5 43.4,61.5 43.4,65.9 45.9,63.4 43.4,60.9 43.4,61.5 43.7,61.5 43.5,61.7 45.2,63.4 
		43.9,64.7 43.9,61.5 43.7,61.5 43.5,61.7 	"/>
	<polygon fill="#00FF00" points="63.1,85.6 63.4,85.6 63.4,80.9 53.9,71.4 53.9,76.8 63.4,86.3 63.4,85.6 63.1,85.6 63.3,85.5 
		54.4,76.6 54.4,72.6 62.9,81.1 62.9,85.6 63.1,85.6 63.3,85.5 	"/>
	<polygon fill="#00FF00" points="73.4,72 73.2,71.8 64.2,80.9 64.2,86.3 73.7,76.8 73.7,71.4 73.2,71.8 73.4,72 73.2,72 73.2,76.6 
		64.7,85 64.7,81.1 73.6,72.1 73.4,72 73.2,72 	"/>
	<polygon fill="#00FF00" points="83.9,65.4 84.2,65.4 84.2,60.8 81.6,63.4 84.2,66 84.2,65.4 83.9,65.4 84.1,65.2 82.3,63.4 
		83.7,62 83.7,65.4 83.9,65.4 84.1,65.2 	"/>
	<polygon fill="#00FF00" points="52.9,70.7 53,70.5 46.5,64 43.8,66.7 53.1,76 53.1,70.6 53,70.5 52.9,70.7 52.6,70.7 52.6,74.8 
		44.5,66.7 46.5,64.7 52.7,70.9 52.9,70.7 52.6,70.7 	"/>
	<polygon fill="#00FF00" points="74.7,70.7 74.4,70.7 74.4,76 83.8,66.7 81.1,64 74.4,70.6 74.4,70.7 74.7,70.7 74.9,70.9 
		81.1,64.7 83.1,66.7 74.9,74.8 74.9,70.7 74.7,70.7 74.9,70.9 	"/>
	<path fill="#00FF00" d="M63.8,38.7L42.3,60.1v6.5h0l21.4,21.4l0.5-0.5l0,0l21-21v-6.5L63.8,38.7z M53.3,60.8l4.5,4.5l-4.3,4.3
		l-8.7-8.7H53.3z M64.4,60.8h8l-8,8V60.8z M64.4,59.5v-8l8,8H64.4z M63.1,59.5h-8l8-8V59.5z M63.1,60.8v8l-8-8H63.1z M64.4,49.7
		v-8.5l8.7,8.7l-4.3,4.3L64.4,49.7z M58.7,66.2l4.5,4.5v8.5l-8.7-8.7L58.7,66.2z M64.4,70.6l4.5-4.5l4.3,4.3l-8.7,8.7V70.6z
		 M69.8,65.2l4.5-4.5h8.5L74,69.5L69.8,65.2z M74.2,59.5l-4.5-4.5l4.3-4.3l8.7,8.7H74.2z M63.1,49.7l-4.5,4.5l-4.3-4.3l8.7-8.7V49.7
		z M57.8,55.1l-4.5,4.5h-8.5l8.7-8.7L57.8,55.1z M63.1,81v4.7l-9-9V72L63.1,81z M64.4,81l9-9v4.7l-9,9V81z M43.7,61.5l1.9,1.9
		l-1.9,1.9V61.5z M46.5,64.3l6.4,6.4v4.7l-8.7-8.7L46.5,64.3z M74.7,75.4v-4.7l6.4-6.4l2.3,2.3L74.7,75.4z M83.9,65.4l-2-2l2-2V65.4
		z"/>
	<path fill="#00FF00" d="M63.8,38.7l-0.2-0.2L42.1,60v6.9h0.1l21.6,21.6l0.6-0.6l0,0l21.1-21.1V60L63.8,38.3l-0.2,0.2L63.8,38.7
		l-0.2,0.2L85,60.3v6.3L64.1,87.5l0,0l-0.3,0.3L42.4,66.4h-0.1v0.2h0.2v-6.4L64,38.9L63.8,38.7l-0.2,0.2L63.8,38.7z M53.3,60.8
		L53.1,61l4.3,4.3l-3.9,3.9L45.4,61h7.9V60.8L53.1,61L53.3,60.8v-0.2h-9.1l9.3,9.3l4.6-4.6l-4.7-4.7h-0.1V60.8z M64.4,60.8V61h7.4
		l-7.1,7.1l0-7.4H64.4V61V60.8h-0.2v8.6l8.9-8.8h-8.9v0.2H64.4z M64.4,59.5h0.2v-7.4l7.1,7.1h-7.4V59.5h0.2H64.4v0.2H73l-8.9-8.9
		v8.9h0.2V59.5z M63.1,59.5v-0.2h-7.4l7.1-7.1l0,7.4H63.1v-0.2V59.5h0.2v-8.6l-8.9,8.9h8.9v-0.2H63.1z M63.1,60.8h-0.2v7.4L55.7,61
		l7.4,0V60.8h-0.2H63.1v-0.2h-8.6l8.9,8.9v-8.9h-0.2V60.8z M64.4,49.7h0.2v-7.9l8.1,8.1l-3.9,3.9l-4.3-4.3L64.4,49.7h0.2H64.4
		l-0.2,0.2l4.6,4.6l4.6-4.6l-9.3-9.3v9.2l0.1,0.1L64.4,49.7z M58.7,66.2l-0.2,0.2l4.4,4.4v7.8l-8.1-8.1l4.1-4.1L58.7,66.2l-0.2,0.2
		L58.7,66.2L58.5,66l-4.4,4.4l9.3,9.3v-9.2l-4.7-4.7L58.5,66L58.7,66.2z M64.4,70.6l0.2,0.2l4.3-4.3l3.9,3.9l-8.1,8.1l0-7.9H64.4
		l0.2,0.2L64.4,70.6h-0.2v9.1l9.3-9.3l-4.6-4.6l-4.7,4.7v0.1H64.4z M69.8,65.2l0.2,0.2l4.4-4.4h7.8L74,69.2L70,65.1L69.8,65.2
		l0.2,0.2L69.8,65.2l-0.2,0.2l4.4,4.4l9.3-9.3h-9.2l-4.7,4.7l0.2,0.2L69.8,65.2z M74.2,59.5l0.2-0.2l-4.3-4.3l3.9-3.9l8.1,8.1h-7.9
		V59.5l0.2-0.2L74.2,59.5v0.2h9.1L74,50.4l-4.6,4.6l4.7,4.7h0.1V59.5z M63.1,49.7L63,49.5l-4.3,4.3l-3.9-3.9l8.1-8.1l0,7.9H63.1
		L63,49.5L63.1,49.7h0.2v-9.1l-9.3,9.3l4.6,4.6l4.7-4.7v-0.1H63.1z M57.8,55.1l-0.2-0.2l-4.4,4.4h-7.8l8.1-8.1l4.1,4.1L57.8,55.1
		l-0.2-0.2L57.8,55.1l0.2-0.2l-4.4-4.4l-9.3,9.3h9.2l4.7-4.7L58,54.9L57.8,55.1z M63.1,81h-0.2V85l-8.5-8.5v-4l8.6,8.6L63.1,81h-0.2
		H63.1l0.2-0.2l-9.4-9.4v5.4l9.5,9.5v-5.4l-0.1-0.1L63.1,81z M64.4,81l0.2,0.2l8.6-8.6v4L64.7,85V81H64.4l0.2,0.2L64.4,81h-0.2v5.3
		l9.5-9.5v-5.4l-9.5,9.5V81H64.4z M43.7,61.5l-0.2,0.2l1.7,1.7l-1.3,1.3v-3.2H43.7l-0.2,0.2L43.7,61.5h-0.2v4.4l2.5-2.5l-2.5-2.5
		v0.6H43.7z M46.5,64.3l-0.2,0.2l6.3,6.3v4l-8.1-8.1l2.2-2.2L46.5,64.3l-0.2,0.2L46.5,64.3l-0.2-0.2l-2.5,2.5l9.3,9.3v-5.4L46.5,64
		l-0.2,0.2L46.5,64.3z M74.7,75.4h0.2v-4.6l6.1-6.1l2,2l-8.5,8.5L74.7,75.4h0.2H74.7l0.2,0.2l8.9-8.9L81.1,64l-6.6,6.6V76l0.4-0.4
		L74.7,75.4z M83.9,65.4l0.2-0.2l-1.8-1.8l1.4-1.4v3.3H83.9l0.2-0.2L83.9,65.4h0.2v-4.5l-2.6,2.6l2.6,2.6v-0.6H83.9z"/>
</g>
</svg>
