<?xml version="1.0" encoding="utf-8"?>
<svg version="1.1" baseProfile="tiny" id="FUTURO_UPDATE_1.3"
	 xmlns="http://www.w3.org/2000/svg" xmlns:xlink="http://www.w3.org/1999/xlink" x="0px" y="0px" viewBox="0 0 127.6 127.6"
	 xml:space="preserve">
<defs>
	<filter x="-50%" y="-50%" width="300%" height="300%" id="glow">
		<feGaussianBlur class="blur" stdDeviation="5" result="coloredBlur"></feGaussianBlur>
		<feMerge>
			<feMergeNode in="coloredBlur"></feMergeNode>
			<feMergeNode in="SourceGraphic"></feMergeNode>
		</feMerge>
	</filter>
</defs>
<g filter="url(#glow)">
	<path fill="#FFED00" d="M68.8,63.8h-1c0,1.1-0.4,2.1-1.2,2.8c-0.7,0.7-1.7,1.2-2.8,1.2c-1.1,0-2.1-0.4-2.8-1.2
		c-0.7-0.7-1.2-1.7-1.2-2.8c0-1.1,0.4-2.1,1.2-2.8c0.7-0.7,1.7-1.2,2.8-1.2c1.1,0,2.1,0.4,2.8,1.2c0.7,0.7,1.2,1.7,1.2,2.8H68.8h1
		c0-3.3-2.7-6-6-6c-3.3,0-6,2.7-6,6c0,3.3,2.7,6,6,6c3.3,0,6-2.7,6-6H68.8z"/>
	<path fill="#FFED00" d="M52.5,36.1l-4-4c-0.4-0.4-1-0.4-1.4,0l-15,15c-0.2,0.2-0.3,0.4-0.3,0.7c0,0.3,0.1,0.5,0.3,0.7l4,4
		c0.2,0.2,0.4,0.3,0.7,0.3c0.3,0,0.5-0.1,0.7-0.3l14.7-14.7l20.6,0v-2l-21,0c-0.3,0-0.5,0.1-0.7,0.3L36.8,50.4l-2.6-2.6l13.6-13.6
		l3.3,3.3L52.5,36.1L52.5,36.1z"/>
	<path fill="#FFED00" d="M91.5,52.5l4-4c0.2-0.2,0.3-0.4,0.3-0.7c0-0.3-0.1-0.5-0.3-0.7l-15-15c-0.4-0.4-1-0.4-1.4,0l-4,4
		c-0.2,0.2-0.3,0.4-0.3,0.7c0,0.3,0.1,0.5,0.3,0.7l14.7,14.7l0,20.6h2l0-21c0-0.3-0.1-0.5-0.3-0.7L77.2,36.8l2.6-2.6l13.6,13.6
		l-3.3,3.3L91.5,52.5L91.5,52.5z"/>
	<path fill="#FFED00" d="M35.8,54.8v21c0,0.3,0.1,0.5,0.3,0.7l14.3,14.3l-2.6,2.6L34.2,79.8l3.3-3.3l-1.4-1.4l-4,4
		c-0.2,0.2-0.3,0.4-0.3,0.7c0,0.3,0.1,0.5,0.3,0.7l15,15c0.2,0.2,0.4,0.3,0.7,0.3c0.3,0,0.5-0.1,0.7-0.3l4-4
		c0.2-0.2,0.3-0.4,0.3-0.7c0-0.3-0.1-0.5-0.3-0.7L37.8,75.4l0-20.6H35.8L35.8,54.8z"/>
	<polyline fill="#FFED00" points="87.8,70.8 85.8,70.8 85.8,72.8 87.8,72.8 		"/>
	<polyline fill="#FFED00" points="41.8,54.8 39.8,54.8 39.8,56.8 41.8,56.8 		"/>
	<polyline fill="#FFED00" points="72.8,39.8 70.8,39.8 70.8,41.8 72.8,41.8 		"/>
	<polyline fill="#FFED00" points="56.8,85.8 54.8,85.8 54.8,87.8 56.8,87.8 		"/>
	<polygon fill="#FFED00" points="37.1,43.5 48.8,55.2 48.8,73.2 54.4,78.8 73.2,78.8 76.5,75.5 75.1,74.1 72.4,76.8 55.2,76.8 
		50.8,72.4 50.8,54.4 38.5,42.1 37.1,43.5 		"/>
	<polygon fill="#FFED00" points="90.5,84.1 78.8,72.4 78.8,54.4 73.2,48.8 54.4,48.8 51.1,52.1 52.5,53.5 55.2,50.8 72.4,50.8 
		76.8,55.2 76.8,73.2 89.1,85.5 90.5,84.1 		"/>
	<polyline fill="#FFED00" points="73.5,50.5 85.5,38.5 84.1,37.1 72.1,49.1 		"/>
	<polyline fill="#FFED00" points="43.5,90.5 55.5,78.5 54.1,77.1 42.1,89.1 		"/>
	<polyline fill="#FFED00" points="64.8,49.8 64.8,39.8 62.8,39.8 62.8,49.8 		"/>
	<polyline fill="#FFED00" points="72.8,60.8 77.8,60.8 77.8,58.8 72.8,58.8 		"/>
	<polyline fill="#FFED00" points="72.8,64.8 77.8,64.8 77.8,62.8 72.8,62.8 		"/>
	<polyline fill="#FFED00" points="72.8,68.8 77.8,68.8 77.8,66.8 72.8,66.8 		"/>
	<polyline fill="#FFED00" points="62.8,77.8 62.8,87.8 64.8,87.8 64.8,77.8 		"/>
	<polyline fill="#FFED00" points="54.8,58.8 49.8,58.8 49.8,60.8 54.8,60.8 		"/>
	<polyline fill="#FFED00" points="54.8,62.8 49.8,62.8 49.8,64.8 54.8,64.8 		"/>
	<polyline fill="#FFED00" points="54.8,66.8 49.8,66.8 49.8,68.8 54.8,68.8 		"/>
	<path fill="#FFED00" d="M51.8,91.8h24c0.3,0,0.5-0.1,0.7-0.3l14.3-14.3l2.6,2.6L79.8,93.4l-3.3-3.3l-1.4,1.4l4,4
		c0.2,0.2,0.4,0.3,0.7,0.3c0.3,0,0.5-0.1,0.7-0.3l15-15c0.2-0.2,0.3-0.4,0.3-0.7c0-0.3-0.1-0.5-0.3-0.7l-4-4c-0.4-0.4-1-0.4-1.4,0
		L75.4,89.8l-23.6,0V91.8L51.8,91.8z"/>
	<polyline fill="#FFED00" points="38.5,85.5 42.5,81.5 41.1,80.1 37.1,84.1 		"/>
	<polyline fill="#FFED00" points="86.5,47.5 90.5,43.5 89.1,42.1 85.1,46.1 		"/>
	<polyline fill="#FFED00" points="42.1,38.5 46.1,42.5 47.5,41.1 43.5,37.1 		"/>
	<polyline fill="#FFED00" points="80.1,86.5 84.1,90.5 85.5,89.1 81.5,85.1 		"/>
	<path fill="#FFED00" d="M70.8,90.8v3h-14v-3h-2v4c0,0.3,0.1,0.5,0.3,0.7c0.2,0.2,0.4,0.3,0.7,0.3h16c0.3,0,0.5-0.1,0.7-0.3
		c0.2-0.2,0.3-0.4,0.3-0.7v-4H70.8z"/>
</g>
</svg>
