<?xml version="1.0" encoding="utf-8"?>
<!-- Generator: Adobe Illustrator 21.0.0, SVG Export Plug-In . SVG Version: 6.00 Build 0)  -->
<svg version="1.1" baseProfile="tiny" id="FUTURO_ICONS"
	 xmlns="http://www.w3.org/2000/svg" xmlns:xlink="http://www.w3.org/1999/xlink" x="0px" y="0px" viewBox="-5 -5 80 80"
	 xml:space="preserve">
<g id="_x30_7_x5F_loan_x5F_money">
	<defs>
		<filter x="-50%" y="-50%" width="300%" height="300%"  id="glow">
			
			<feOffset result="offOut" in="SourceGraphic" dx="0" dy="0" />
			<feColorMatrix result="matrixOut" in="offOut" type="matrix" values="1	 0 	 0	 0	 0
			0 	 1	 0	 0	 0
			0 	 0 	 1	 0 	 3
			0 	 0 	 0 	 0.5 	 0"/>
			<feGaussianBlur class="blur" stdDeviation="5" result="coloredBlur"></feGaussianBlur>
			<feMerge>
				<feMergeNode in="coloredBlur"></feMergeNode>
				<feMergeNode in="SourceGraphic"></feMergeNode>
			</feMerge>
		</filter>
	</defs>
	<g filter="url(#glow)">
		<path fill="#00FFFF" d="M13,38h8.8l11,4H42c1.1,0,2,0.9,2,2c0,1.1-0.9,2-2,2H31c-2.2,0-4,1.8-4,4h2c0-1.1,0.9-2,2-2h11
			c2.2,0,4-1.8,4-4c0-2.2-1.8-4-4-4h-8.8l-11-4H13V38L13,38z"/>
		<path fill="#00FFFF" d="M44.3,47l16-5L60,41v1c1.1,0,2,0.9,2,2c0,0.2-0.1,0.5-0.3,0.8c-0.1,0.1-0.2,0.3-0.3,0.4l-0.1,0.1l0,0l0,0
			l0,0l0,0l0,0l0,0L62,46l-0.5-0.9L36.8,58h-1.6l-17-6H14v2h3.8l17,6h2.4l25.4-13.2l0.1-0.1c0,0,0.3-0.3,0.6-0.8
			c0.3-0.5,0.7-1.1,0.7-1.9c0-2.2-1.8-4-4-4h-0.2l-16.1,5L44.3,47L44.3,47z"/>
		<path fill="#00FFFF" d="M50,30h-1c0,1.1-0.4,2.1-1.2,2.8C47.1,33.6,46.1,34,45,34c-1.1,0-2.1-0.4-2.8-1.2C41.4,32.1,41,31.1,41,30
			c0-1.1,0.4-2.1,1.2-2.8c0.7-0.7,1.7-1.2,2.8-1.2c1.1,0,2.1,0.4,2.8,1.2c0.7,0.7,1.2,1.7,1.2,2.8H50h1c0-3.3-2.7-6-6-6
			c-3.3,0-6,2.7-6,6c0,3.3,2.7,6,6,6c3.3,0,6-2.7,6-6H50z"/>
		<path fill="#00FFFF" d="M34,22h-1c0,1.1-0.4,2.1-1.2,2.8C31.1,25.6,30.1,26,29,26c-1.1,0-2.1-0.4-2.8-1.2C25.4,24.1,25,23.1,25,22
			c0-1.1,0.4-2.1,1.2-2.8c0.7-0.7,1.7-1.2,2.8-1.2c1.1,0,2.1,0.4,2.8,1.2c0.7,0.7,1.2,1.7,1.2,2.8H34h1c0-3.3-2.7-6-6-6
			c-3.3,0-6,2.7-6,6c0,3.3,2.7,6,6,6c3.3,0,6-2.7,6-6H34z"/>
		<polyline fill="#00FFFF" points="10,50 8,50 8,52 10,52 		"/>
		<polyline fill="#00FFFF" points="6,50 4,50 4,52 6,52 		"/>
		<polyline fill="#00FFFF" points="32,8 32,0 30,0 30,8 		"/>
		<polyline fill="#00FFFF" points="28,14 28,6 26,6 26,14 		"/>
		<polyline fill="#00FFFF" points="30,10 30,12 32,12 32,10 		"/>
		<polyline fill="#00FFFF" points="26,2 26,4 28,4 28,2 		"/>
		<polyline fill="#00FFFF" points="44,16 44,8 42,8 42,16 		"/>
		<polyline fill="#00FFFF" points="48,22 48,14 46,14 46,22 		"/>
		<polyline fill="#00FFFF" points="42,18 42,20 44,20 44,18 		"/>
		<polyline fill="#00FFFF" points="46,10 46,12 48,12 48,10 		"/>
		<path fill="#00FFFF" d="M0,36h12v0v18H0v2l12,0c1.1,0,2-0.9,2-2V36c0-1.1-0.9-2-2-2H0V36L0,36z"/>
	</g>
</g>
</svg>
